# Blender 4.1.1
# www.blender.org
mtllib Number_7.mtl
g Number_7_Number_7
v -0.168055 -0.401772 0.050000
v 0.081945 0.158228 0.050000
v -0.213055 0.158228 0.050000
v -0.213055 0.251228 0.050000
v 0.227945 0.251228 0.050000
v -0.081055 -0.439772 0.050000
v -0.168055 -0.401772 -0.050000
v 0.081945 0.158228 -0.050000
v -0.213055 0.158228 -0.050000
v -0.213055 0.251228 -0.050000
v 0.227945 0.251228 -0.050000
v -0.081055 -0.439772 -0.050000
v -0.168055 -0.401772 -0.050000
v -0.172147 -0.403357 -0.049511
v -0.175838 -0.404787 -0.048090
v -0.178767 -0.405921 -0.045878
v -0.180647 -0.406650 -0.043090
v -0.181295 -0.406901 -0.040000
v -0.181295 -0.406901 0.040000
v -0.180647 -0.406650 0.043090
v -0.178767 -0.405921 0.045878
v -0.175838 -0.404787 0.048090
v -0.172147 -0.403357 0.049511
v -0.168055 -0.401772 0.050000
v 0.081945 0.158228 -0.050000
v 0.077181 0.155138 -0.049511
v 0.072885 0.152350 -0.048090
v 0.069474 0.150138 -0.045878
v 0.067285 0.148717 -0.043090
v 0.066529 0.148228 -0.040000
v 0.066529 0.148228 0.040000
v 0.067285 0.148717 0.043090
v 0.069474 0.150138 0.045878
v 0.072885 0.152350 0.048090
v 0.077181 0.155138 0.049511
v 0.081945 0.158228 0.050000
v -0.213055 0.158228 -0.050000
v -0.216145 0.155138 -0.049511
v -0.218933 0.152350 -0.048090
v -0.221145 0.150138 -0.045878
v -0.222566 0.148717 -0.043090
v -0.223054 0.148228 -0.040000
v -0.223054 0.148228 0.040000
v -0.222566 0.148717 0.043090
v -0.221145 0.150138 0.045878
v -0.218933 0.152350 0.048090
v -0.216145 0.155138 0.049511
v -0.213055 0.158228 0.050000
v -0.213055 0.251228 -0.050000
v -0.216145 0.254318 -0.049511
v -0.218933 0.257106 -0.048090
v -0.221145 0.259318 -0.045878
v -0.222566 0.260739 -0.043090
v -0.223054 0.261228 -0.040000
v -0.223054 0.261228 0.040000
v -0.222566 0.260739 0.043090
v -0.221145 0.259318 0.045878
v -0.218933 0.257106 0.048090
v -0.216145 0.254318 0.049511
v -0.213055 0.251228 0.050000
v 0.227945 0.251228 -0.050000
v 0.232712 0.254318 -0.049511
v 0.237012 0.257106 -0.048090
v 0.240426 0.259318 -0.045878
v 0.242617 0.260739 -0.043090
v 0.243371 0.261228 -0.040000
v 0.243371 0.261228 0.040000
v 0.242617 0.260739 0.043090
v 0.240426 0.259318 0.045878
v 0.237012 0.257106 0.048090
v 0.232712 0.254318 0.049511
v 0.227945 0.251228 0.050000
v -0.081055 -0.439772 -0.050000
v -0.079484 -0.443830 -0.049511
v -0.078068 -0.447491 -0.048090
v -0.076942 -0.450396 -0.045878
v -0.076221 -0.452261 -0.043090
v -0.075972 -0.452904 -0.040000
v -0.075972 -0.452904 0.040000
v -0.076221 -0.452261 0.043090
v -0.076942 -0.450396 0.045878
v -0.078068 -0.447491 0.048090
v -0.079484 -0.443830 0.049511
v -0.081055 -0.439772 0.050000
vn -0.0000 -0.0000 1.0000
vn -0.0000 -0.0000 -1.0000
vn -0.2605 -0.1009 -0.9602
vn -0.1006 -0.0653 -0.9928
vn -0.0720 -0.0467 -0.9963
vn -0.1033 -0.0400 -0.9938
vn -0.4749 -0.1840 -0.8606
vn -0.2616 -0.1696 -0.9502
vn -0.6882 -0.2665 -0.6748
vn -0.4578 -0.2970 -0.8380
vn -0.8624 -0.3341 -0.3803
vn -0.6952 -0.4508 -0.5598
vn -0.9273 -0.3592 -0.1053
vn -0.8290 -0.5379 -0.1530
vn -0.9273 -0.3592 0.1053
vn -0.8290 -0.5379 0.1530
vn -0.8624 -0.3341 0.3803
vn -0.6952 -0.4508 0.5598
vn -0.6882 -0.2665 0.6748
vn -0.4578 -0.2970 0.8380
vn -0.4749 -0.1840 0.8606
vn -0.2616 -0.1696 0.9502
vn -0.2605 -0.1009 0.9602
vn -0.1006 -0.0653 0.9928
vn -0.1033 -0.0400 0.9938
vn -0.0720 -0.0467 0.9963
vn -0.1980 -0.1980 -0.9600
vn -0.0786 -0.0786 -0.9938
vn -0.3610 -0.3610 -0.8599
vn -0.5226 -0.5226 -0.6737
vn -0.6543 -0.6543 -0.3792
vn -0.7032 -0.7032 -0.1048
vn -0.7032 -0.7032 0.1048
vn -0.6543 -0.6543 0.3792
vn -0.5226 -0.5226 0.6737
vn -0.3610 -0.3610 0.8599
vn -0.1980 -0.1980 0.9600
vn -0.0786 -0.0786 0.9938
vn -0.1980 0.1980 -0.9600
vn -0.0786 0.0786 -0.9938
vn -0.3610 0.3610 -0.8599
vn -0.5226 0.5226 -0.6737
vn -0.6543 0.6543 -0.3792
vn -0.7032 0.7032 -0.1048
vn -0.7032 0.7032 0.1048
vn -0.6543 0.6543 0.3792
vn -0.5226 0.5226 0.6737
vn -0.3610 0.3610 0.8599
vn -0.1980 0.1980 0.9600
vn -0.0786 0.0786 0.9938
vn 0.1945 0.1260 -0.9728
vn 0.0720 0.0467 -0.9963
vn 0.3616 0.2345 -0.9023
vn 0.5566 0.3607 -0.7484
vn 0.7504 0.4865 -0.4474
vn 0.8318 0.5392 -0.1316
vn 0.8318 0.5392 0.1316
vn 0.7504 0.4865 0.4474
vn 0.5566 0.3607 0.7484
vn 0.3616 0.2345 0.9023
vn 0.1945 0.1260 0.9728
vn 0.0720 0.0467 0.9963
vn 0.1014 -0.2619 -0.9597
vn 0.0403 -0.1041 -0.9937
vn 0.1846 -0.4773 -0.8591
vn 0.2672 -0.6903 -0.6724
vn 0.3341 -0.8633 -0.3782
vn 0.3589 -0.9275 -0.1045
vn 0.3589 -0.9275 0.1045
vn 0.3341 -0.8633 0.3782
vn 0.2672 -0.6903 0.6724
vn 0.1846 -0.4773 0.8591
vn 0.1014 -0.2619 0.9597
vn 0.0403 -0.1041 0.9937
vt 0.400000 0.000000
vt 0.800000 0.000000
vt 0.600000 0.000000
vt 0.200000 0.000000
vt 1.000000 0.000000
vt 0.000000 0.000000
vt 0.000000 0.090909
vt 0.166667 0.090909
vt 0.166667 0.000000
vt 0.000000 0.181818
vt 0.166667 0.181818
vt 0.000000 0.272727
vt 0.166667 0.272727
vt 0.000000 0.363636
vt 0.166667 0.363636
vt 0.000000 0.454545
vt 0.166667 0.454545
vt 0.000000 0.545455
vt 0.166667 0.545455
vt 0.000000 0.636364
vt 0.166667 0.636364
vt 0.000000 0.727273
vt 0.166667 0.727273
vt 0.000000 0.818182
vt 0.166667 0.818182
vt 0.000000 0.909091
vt 0.166667 0.909091
vt 0.000000 1.000000
vt 0.166667 1.000000
vt 0.333333 0.090909
vt 0.333333 0.000000
vt 0.333333 0.181818
vt 0.333333 0.272727
vt 0.333333 0.363636
vt 0.333333 0.454545
vt 0.333333 0.545455
vt 0.333333 0.636364
vt 0.333333 0.727273
vt 0.333333 0.818182
vt 0.333333 0.909091
vt 0.333333 1.000000
vt 0.500000 0.090909
vt 0.500000 0.000000
vt 0.500000 0.181818
vt 0.500000 0.272727
vt 0.500000 0.363636
vt 0.500000 0.454545
vt 0.500000 0.545455
vt 0.500000 0.636364
vt 0.500000 0.727273
vt 0.500000 0.818182
vt 0.500000 0.909091
vt 0.500000 1.000000
vt 0.666667 0.090909
vt 0.666667 0.000000
vt 0.666667 0.181818
vt 0.666667 0.272727
vt 0.666667 0.363636
vt 0.666667 0.454545
vt 0.666667 0.545455
vt 0.666667 0.636364
vt 0.666667 0.727273
vt 0.666667 0.818182
vt 0.666667 0.909091
vt 0.666667 1.000000
vt 0.833333 0.090909
vt 0.833333 0.000000
vt 0.833333 0.181818
vt 0.833333 0.272727
vt 0.833333 0.363636
vt 0.833333 0.454545
vt 0.833333 0.545455
vt 0.833333 0.636364
vt 0.833333 0.727273
vt 0.833333 0.818182
vt 0.833333 0.909091
vt 0.833333 1.000000
vt 1.000000 0.090909
vt 1.000000 0.181818
vt 1.000000 0.272727
vt 1.000000 0.363636
vt 1.000000 0.454545
vt 1.000000 0.545455
vt 1.000000 0.636364
vt 1.000000 0.727273
vt 1.000000 0.818182
vt 1.000000 0.909091
vt 1.000000 1.000000
s 0
usemtl Gold.007
f 3/1/1 5/2/1 4/3/1
f 3/1/1 2/4/1 5/2/1
f 2/4/1 6/5/1 5/2/1
f 1/6/1 6/5/1 2/4/1
f 9/1/2 10/3/2 11/2/2
f 9/1/2 11/2/2 8/4/2
f 8/4/2 11/2/2 12/5/2
f 7/6/2 8/4/2 12/5/2
s 1
f 14/7/3 26/8/4 25/9/5 13/6/6
f 15/10/7 27/11/8 26/8/4 14/7/3
f 16/12/9 28/13/10 27/11/8 15/10/7
f 17/14/11 29/15/12 28/13/10 16/12/9
f 18/16/13 30/17/14 29/15/12 17/14/11
f 19/18/15 31/19/16 30/17/14 18/16/13
f 20/20/17 32/21/18 31/19/16 19/18/15
f 21/22/19 33/23/20 32/21/18 20/20/17
f 22/24/21 34/25/22 33/23/20 21/22/19
f 23/26/23 35/27/24 34/25/22 22/24/21
f 24/28/25 36/29/26 35/27/24 23/26/23
f 26/8/4 38/30/27 37/31/28 25/9/5
f 27/11/8 39/32/29 38/30/27 26/8/4
f 28/13/10 40/33/30 39/32/29 27/11/8
f 29/15/12 41/34/31 40/33/30 28/13/10
f 30/17/14 42/35/32 41/34/31 29/15/12
f 31/19/16 43/36/33 42/35/32 30/17/14
f 32/21/18 44/37/34 43/36/33 31/19/16
f 33/23/20 45/38/35 44/37/34 32/21/18
f 34/25/22 46/39/36 45/38/35 33/23/20
f 35/27/24 47/40/37 46/39/36 34/25/22
f 36/29/26 48/41/38 47/40/37 35/27/24
f 38/30/27 50/42/39 49/43/40 37/31/28
f 39/32/29 51/44/41 50/42/39 38/30/27
f 40/33/30 52/45/42 51/44/41 39/32/29
f 41/34/31 53/46/43 52/45/42 40/33/30
f 42/35/32 54/47/44 53/46/43 41/34/31
f 43/36/33 55/48/45 54/47/44 42/35/32
f 44/37/34 56/49/46 55/48/45 43/36/33
f 45/38/35 57/50/47 56/49/46 44/37/34
f 46/39/36 58/51/48 57/50/47 45/38/35
f 47/40/37 59/52/49 58/51/48 46/39/36
f 48/41/38 60/53/50 59/52/49 47/40/37
f 50/42/39 62/54/51 61/55/52 49/43/40
f 51/44/41 63/56/53 62/54/51 50/42/39
f 52/45/42 64/57/54 63/56/53 51/44/41
f 53/46/43 65/58/55 64/57/54 52/45/42
f 54/47/44 66/59/56 65/58/55 53/46/43
f 55/48/45 67/60/57 66/59/56 54/47/44
f 56/49/46 68/61/58 67/60/57 55/48/45
f 57/50/47 69/62/59 68/61/58 56/49/46
f 58/51/48 70/63/60 69/62/59 57/50/47
f 59/52/49 71/64/61 70/63/60 58/51/48
f 60/53/50 72/65/62 71/64/61 59/52/49
f 62/54/51 74/66/63 73/67/64 61/55/52
f 63/56/53 75/68/65 74/66/63 62/54/51
f 64/57/54 76/69/66 75/68/65 63/56/53
f 65/58/55 77/70/67 76/69/66 64/57/54
f 66/59/56 78/71/68 77/70/67 65/58/55
f 67/60/57 79/72/69 78/71/68 66/59/56
f 68/61/58 80/73/70 79/72/69 67/60/57
f 69/62/59 81/74/71 80/73/70 68/61/58
f 70/63/60 82/75/72 81/74/71 69/62/59
f 71/64/61 83/76/73 82/75/72 70/63/60
f 72/65/62 84/77/74 83/76/73 71/64/61
f 74/66/63 14/78/3 13/5/6 73/67/64
f 75/68/65 15/79/7 14/78/3 74/66/63
f 76/69/66 16/80/9 15/79/7 75/68/65
f 77/70/67 17/81/11 16/80/9 76/69/66
f 78/71/68 18/82/13 17/81/11 77/70/67
f 79/72/69 19/83/15 18/82/13 78/71/68
f 80/73/70 20/84/17 19/83/15 79/72/69
f 81/74/71 21/85/19 20/84/17 80/73/70
f 82/75/72 22/86/21 21/85/19 81/74/71
f 83/76/73 23/87/23 22/86/21 82/75/72
f 84/77/74 24/88/25 23/87/23 83/76/73
