# Blender 4.1.1
# www.blender.org
mtllib Number_1.mtl
g Text.001_Text.010
v -0.049000 -0.341000 0.050000
v -0.049000 0.341000 0.050000
v 0.049000 0.341000 0.050000
v 0.049000 -0.341000 0.050000
v -0.049000 -0.341000 -0.050000
v -0.049000 0.341000 -0.050000
v 0.049000 0.341000 -0.050000
v 0.049000 -0.341000 -0.050000
v -0.049000 -0.341000 -0.050000
v -0.052090 -0.344090 -0.049511
v -0.054878 -0.346878 -0.048090
v -0.057090 -0.349090 -0.045878
v -0.058511 -0.350511 -0.043090
v -0.059000 -0.351000 -0.040000
v -0.059000 -0.351000 0.040000
v -0.058511 -0.350511 0.043090
v -0.057090 -0.349090 0.045878
v -0.054878 -0.346878 0.048090
v -0.052090 -0.344090 0.049511
v -0.049000 -0.341000 0.050000
v -0.049000 0.341000 -0.050000
v -0.052090 0.344090 -0.049511
v -0.054878 0.346878 -0.048090
v -0.057090 0.349090 -0.045878
v -0.058511 0.350511 -0.043090
v -0.059000 0.351000 -0.040000
v -0.059000 0.351000 0.040000
v -0.058511 0.350511 0.043090
v -0.057090 0.349090 0.045878
v -0.054878 0.346878 0.048090
v -0.052090 0.344090 0.049511
v -0.049000 0.341000 0.050000
v 0.049000 0.341000 -0.050000
v 0.052090 0.344090 -0.049511
v 0.054878 0.346878 -0.048090
v 0.057090 0.349090 -0.045878
v 0.058511 0.350511 -0.043090
v 0.059000 0.351000 -0.040000
v 0.059000 0.351000 0.040000
v 0.058511 0.350511 0.043090
v 0.057090 0.349090 0.045878
v 0.054878 0.346878 0.048090
v 0.052090 0.344090 0.049511
v 0.049000 0.341000 0.050000
v 0.049000 -0.341000 -0.050000
v 0.052090 -0.344090 -0.049511
v 0.054878 -0.346878 -0.048090
v 0.057090 -0.349090 -0.045878
v 0.058511 -0.350511 -0.043090
v 0.059000 -0.351000 -0.040000
v 0.059000 -0.351000 0.040000
v 0.058511 -0.350511 0.043090
v 0.057090 -0.349090 0.045878
v 0.054878 -0.346878 0.048090
v 0.052090 -0.344090 0.049511
v 0.049000 -0.341000 0.050000
vn -0.0000 -0.0000 1.0000
vn -0.0000 -0.0000 -1.0000
vn -0.1980 -0.1980 -0.9600
vn -0.1980 0.1980 -0.9600
vn -0.0786 0.0786 -0.9938
vn -0.0786 -0.0786 -0.9938
vn -0.3610 -0.3610 -0.8599
vn -0.3610 0.3610 -0.8599
vn -0.5226 -0.5226 -0.6737
vn -0.5226 0.5226 -0.6737
vn -0.6543 -0.6543 -0.3792
vn -0.6543 0.6543 -0.3792
vn -0.7032 -0.7032 -0.1048
vn -0.7032 0.7032 -0.1048
vn -0.7032 -0.7032 0.1048
vn -0.7032 0.7032 0.1048
vn -0.6543 -0.6543 0.3792
vn -0.6543 0.6543 0.3792
vn -0.5226 -0.5226 0.6737
vn -0.5226 0.5226 0.6737
vn -0.3610 -0.3610 0.8599
vn -0.3610 0.3610 0.8599
vn -0.1980 -0.1980 0.9600
vn -0.1980 0.1980 0.9600
vn -0.0786 -0.0786 0.9938
vn -0.0786 0.0786 0.9938
vn 0.1980 0.1980 -0.9600
vn 0.0786 0.0786 -0.9938
vn 0.3610 0.3610 -0.8599
vn 0.5226 0.5226 -0.6737
vn 0.6543 0.6543 -0.3792
vn 0.7032 0.7032 -0.1048
vn 0.7032 0.7032 0.1048
vn 0.6543 0.6543 0.3792
vn 0.5226 0.5226 0.6737
vn 0.3610 0.3610 0.8599
vn 0.1980 0.1980 0.9600
vn 0.0786 0.0786 0.9938
vn 0.1980 -0.1980 -0.9600
vn 0.0786 -0.0786 -0.9938
vn 0.3610 -0.3610 -0.8599
vn 0.5226 -0.5226 -0.6737
vn 0.6543 -0.6543 -0.3792
vn 0.7032 -0.7032 -0.1048
vn 0.7032 -0.7032 0.1048
vn 0.6543 -0.6543 0.3792
vn 0.5226 -0.5226 0.6737
vn 0.3610 -0.3610 0.8599
vn 0.1980 -0.1980 0.9600
vn 0.0786 -0.0786 0.9938
vt 0.000000 0.000000
vt 0.666667 0.000000
vt 0.333333 0.000000
vt 1.000000 0.000000
vt 0.000000 0.090909
vt 0.250000 0.090909
vt 0.250000 0.000000
vt 0.000000 0.181818
vt 0.250000 0.181818
vt 0.000000 0.272727
vt 0.250000 0.272727
vt 0.000000 0.363636
vt 0.250000 0.363636
vt 0.000000 0.454545
vt 0.250000 0.454545
vt 0.000000 0.545455
vt 0.250000 0.545455
vt 0.000000 0.636364
vt 0.250000 0.636364
vt 0.000000 0.727273
vt 0.250000 0.727273
vt 0.000000 0.818182
vt 0.250000 0.818182
vt 0.000000 0.909091
vt 0.250000 0.909091
vt 0.000000 1.000000
vt 0.250000 1.000000
vt 0.500000 0.090909
vt 0.500000 0.000000
vt 0.500000 0.181818
vt 0.500000 0.272727
vt 0.500000 0.363636
vt 0.500000 0.454545
vt 0.500000 0.545455
vt 0.500000 0.636364
vt 0.500000 0.727273
vt 0.500000 0.818182
vt 0.500000 0.909091
vt 0.500000 1.000000
vt 0.750000 0.090909
vt 0.750000 0.000000
vt 0.750000 0.181818
vt 0.750000 0.272727
vt 0.750000 0.363636
vt 0.750000 0.454545
vt 0.750000 0.545455
vt 0.750000 0.636364
vt 0.750000 0.727273
vt 0.750000 0.818182
vt 0.750000 0.909091
vt 0.750000 1.000000
vt 1.000000 0.090909
vt 1.000000 0.181818
vt 1.000000 0.272727
vt 1.000000 0.363636
vt 1.000000 0.454545
vt 1.000000 0.545455
vt 1.000000 0.636364
vt 1.000000 0.727273
vt 1.000000 0.818182
vt 1.000000 0.909091
vt 1.000000 1.000000
s 0
usemtl Gold.001
f 1/1/1 3/2/1 2/3/1
f 1/1/1 4/4/1 3/2/1
f 5/1/2 6/3/2 7/2/2
f 5/1/2 7/2/2 8/4/2
s 1
f 10/5/3 22/6/4 21/7/5 9/1/6
f 11/8/7 23/9/8 22/6/4 10/5/3
f 12/10/9 24/11/10 23/9/8 11/8/7
f 13/12/11 25/13/12 24/11/10 12/10/9
f 14/14/13 26/15/14 25/13/12 13/12/11
f 15/16/15 27/17/16 26/15/14 14/14/13
f 16/18/17 28/19/18 27/17/16 15/16/15
f 17/20/19 29/21/20 28/19/18 16/18/17
f 18/22/21 30/23/22 29/21/20 17/20/19
f 19/24/23 31/25/24 30/23/22 18/22/21
f 20/26/25 32/27/26 31/25/24 19/24/23
f 22/6/4 34/28/27 33/29/28 21/7/5
f 23/9/8 35/30/29 34/28/27 22/6/4
f 24/11/10 36/31/30 35/30/29 23/9/8
f 25/13/12 37/32/31 36/31/30 24/11/10
f 26/15/14 38/33/32 37/32/31 25/13/12
f 27/17/16 39/34/33 38/33/32 26/15/14
f 28/19/18 40/35/34 39/34/33 27/17/16
f 29/21/20 41/36/35 40/35/34 28/19/18
f 30/23/22 42/37/36 41/36/35 29/21/20
f 31/25/24 43/38/37 42/37/36 30/23/22
f 32/27/26 44/39/38 43/38/37 31/25/24
f 34/28/27 46/40/39 45/41/40 33/29/28
f 35/30/29 47/42/41 46/40/39 34/28/27
f 36/31/30 48/43/42 47/42/41 35/30/29
f 37/32/31 49/44/43 48/43/42 36/31/30
f 38/33/32 50/45/44 49/44/43 37/32/31
f 39/34/33 51/46/45 50/45/44 38/33/32
f 40/35/34 52/47/46 51/46/45 39/34/33
f 41/36/35 53/48/47 52/47/46 40/35/34
f 42/37/36 54/49/48 53/48/47 41/36/35
f 43/38/37 55/50/49 54/49/48 42/37/36
f 44/39/38 56/51/50 55/50/49 43/38/37
f 46/40/39 10/52/3 9/4/6 45/41/40
f 47/42/41 11/53/7 10/52/3 46/40/39
f 48/43/42 12/54/9 11/53/7 47/42/41
f 49/44/43 13/55/11 12/54/9 48/43/42
f 50/45/44 14/56/13 13/55/11 49/44/43
f 51/46/45 15/57/15 14/56/13 50/45/44
f 52/47/46 16/58/17 15/57/15 51/46/45
f 53/48/47 17/59/19 16/58/17 52/47/46
f 54/49/48 18/60/21 17/59/19 53/48/47
f 55/50/49 19/61/23 18/60/21 54/49/48
f 56/51/50 20/62/25 19/61/23 55/50/49
