# Blender 4.1.1
# www.blender.org
mtllib Number_4.mtl
g Number_4_Number_4
v 0.186543 -0.026185 0.050000
v 0.186543 -0.114185 0.050000
v 0.113543 -0.114185 0.050000
v 0.113543 -0.338185 0.050000
v 0.015543 -0.338185 0.050000
v 0.015543 -0.114185 0.050000
v -0.273457 -0.114185 0.050000
v -0.273457 -0.069185 0.050000
v 0.071543 0.352815 0.050000
v 0.113543 0.352815 0.050000
v 0.113543 -0.026185 0.050000
v 0.015543 -0.026185 0.050000
v 0.015543 0.167815 0.050000
v 0.013543 0.167815 0.050000
v -0.142457 -0.026185 0.050000
v 0.186543 -0.026185 -0.050000
v 0.186543 -0.114185 -0.050000
v 0.113543 -0.114185 -0.050000
v 0.113543 -0.338185 -0.050000
v 0.015543 -0.338185 -0.050000
v 0.015543 -0.114185 -0.050000
v -0.273457 -0.114185 -0.050000
v -0.273457 -0.069185 -0.050000
v 0.071543 0.352815 -0.050000
v 0.113543 0.352815 -0.050000
v 0.113543 -0.026185 -0.050000
v 0.015543 -0.026185 -0.050000
v 0.015543 0.167815 -0.050000
v 0.013543 0.167815 -0.050000
v -0.142457 -0.026185 -0.050000
v 0.186543 -0.026185 -0.050000
v 0.189633 -0.023095 -0.049511
v 0.192421 -0.020307 -0.048090
v 0.194633 -0.018095 -0.045878
v 0.196054 -0.016674 -0.043090
v 0.196543 -0.016185 -0.040000
v 0.196543 -0.016185 0.040000
v 0.196054 -0.016674 0.043090
v 0.194633 -0.018095 0.045878
v 0.192421 -0.020307 0.048090
v 0.189633 -0.023095 0.049511
v 0.186543 -0.026185 0.050000
v 0.186543 -0.114185 -0.050000
v 0.189633 -0.117275 -0.049511
v 0.192421 -0.120063 -0.048090
v 0.194633 -0.122275 -0.045878
v 0.196054 -0.123696 -0.043090
v 0.196543 -0.124185 -0.040000
v 0.196543 -0.124185 0.040000
v 0.196054 -0.123696 0.043090
v 0.194633 -0.122275 0.045878
v 0.192421 -0.120063 0.048090
v 0.189633 -0.117275 0.049511
v 0.186543 -0.114185 0.050000
v 0.113543 -0.114185 -0.050000
v 0.116633 -0.117275 -0.049511
v 0.119421 -0.120063 -0.048090
v 0.121633 -0.122275 -0.045878
v 0.123054 -0.123696 -0.043090
v 0.123543 -0.124185 -0.040000
v 0.123543 -0.124185 0.040000
v 0.123054 -0.123696 0.043090
v 0.121633 -0.122275 0.045878
v 0.119421 -0.120063 0.048090
v 0.116633 -0.117275 0.049511
v 0.113543 -0.114185 0.050000
v 0.113543 -0.338185 -0.050000
v 0.116633 -0.341275 -0.049511
v 0.119421 -0.344063 -0.048090
v 0.121633 -0.346275 -0.045878
v 0.123054 -0.347696 -0.043090
v 0.123543 -0.348185 -0.040000
v 0.123543 -0.348185 0.040000
v 0.123054 -0.347696 0.043090
v 0.121633 -0.346275 0.045878
v 0.119421 -0.344063 0.048090
v 0.116633 -0.341275 0.049511
v 0.113543 -0.338185 0.050000
v 0.015543 -0.338185 -0.050000
v 0.012453 -0.341275 -0.049511
v 0.009665 -0.344063 -0.048090
v 0.007453 -0.346275 -0.045878
v 0.006033 -0.347696 -0.043090
v 0.005543 -0.348185 -0.040000
v 0.005543 -0.348185 0.040000
v 0.006033 -0.347696 0.043090
v 0.007453 -0.346275 0.045878
v 0.009665 -0.344063 0.048090
v 0.012453 -0.341275 0.049511
v 0.015543 -0.338185 0.050000
v 0.015543 -0.114185 -0.050000
v 0.012453 -0.117275 -0.049511
v 0.009665 -0.120063 -0.048090
v 0.007453 -0.122275 -0.045878
v 0.006033 -0.123696 -0.043090
v 0.005543 -0.124185 -0.040000
v 0.005543 -0.124185 0.040000
v 0.006033 -0.123696 0.043090
v 0.007453 -0.122275 0.045878
v 0.009665 -0.120063 0.048090
v 0.012453 -0.117275 0.049511
v 0.015543 -0.114185 0.050000
v -0.273457 -0.114185 -0.050000
v -0.276547 -0.117275 -0.049511
v -0.279335 -0.120063 -0.048090
v -0.281547 -0.122275 -0.045878
v -0.282967 -0.123696 -0.043090
v -0.283457 -0.124185 -0.040000
v -0.283457 -0.124185 0.040000
v -0.282967 -0.123696 0.043090
v -0.281547 -0.122275 0.045878
v -0.279335 -0.120063 0.048090
v -0.276547 -0.117275 0.049511
v -0.273457 -0.114185 0.050000
v -0.273457 -0.069185 -0.050000
v -0.276547 -0.068083 -0.049511
v -0.279335 -0.067088 -0.048090
v -0.281547 -0.066299 -0.045878
v -0.282967 -0.065792 -0.043090
v -0.283457 -0.065618 -0.040000
v -0.283457 -0.065618 0.040000
v -0.282967 -0.065792 0.043090
v -0.281547 -0.066299 0.045878
v -0.279335 -0.067088 0.048090
v -0.276547 -0.068083 0.049511
v -0.273457 -0.069185 0.050000
v 0.071543 0.352815 -0.050000
v 0.070078 0.355905 -0.049511
v 0.068756 0.358693 -0.048090
v 0.067707 0.360905 -0.045878
v 0.067034 0.362326 -0.043090
v 0.066802 0.362815 -0.040000
v 0.066802 0.362815 0.040000
v 0.067034 0.362326 0.043090
v 0.067707 0.360905 0.045878
v 0.068756 0.358693 0.048090
v 0.070078 0.355905 0.049511
v 0.071543 0.352815 0.050000
v 0.113543 0.352815 -0.050000
v 0.116633 0.355905 -0.049511
v 0.119421 0.358693 -0.048090
v 0.121633 0.360905 -0.045878
v 0.123054 0.362326 -0.043090
v 0.123543 0.362815 -0.040000
v 0.123543 0.362815 0.040000
v 0.123054 0.362326 0.043090
v 0.121633 0.360905 0.045878
v 0.119421 0.358693 0.048090
v 0.116633 0.355905 0.049511
v 0.113543 0.352815 0.050000
v 0.113543 -0.026185 -0.050000
v 0.116633 -0.023095 -0.049511
v 0.119421 -0.020307 -0.048090
v 0.121633 -0.018095 -0.045878
v 0.123054 -0.016674 -0.043090
v 0.123543 -0.016185 -0.040000
v 0.123543 -0.016185 0.040000
v 0.123054 -0.016674 0.043090
v 0.121633 -0.018095 0.045878
v 0.119421 -0.020307 0.048090
v 0.116633 -0.023095 0.049511
v 0.113543 -0.026185 0.050000
v 0.015543 -0.026185 -0.050000
v 0.012453 -0.023095 -0.049511
v 0.009665 -0.020307 -0.048090
v 0.007453 -0.018095 -0.045878
v 0.006033 -0.016674 -0.043090
v 0.005543 -0.016185 -0.040000
v 0.005543 -0.016185 0.040000
v 0.006033 -0.016674 0.043090
v 0.007453 -0.018095 0.045878
v 0.009665 -0.020307 0.048090
v 0.012453 -0.023095 0.049511
v 0.015543 -0.026185 0.050000
v 0.015543 0.167815 -0.050000
v 0.012453 0.164725 -0.049511
v 0.009665 0.161937 -0.048090
v 0.007453 0.159725 -0.045878
v 0.006033 0.158304 -0.043090
v 0.005543 0.157815 -0.040000
v 0.005543 0.157815 0.040000
v 0.006033 0.158304 0.043090
v 0.007453 0.159725 0.045878
v 0.009665 0.161937 0.048090
v 0.012453 0.164725 0.049511
v 0.015543 0.167815 0.050000
v 0.013543 0.167815 -0.050000
v 0.015024 0.164725 -0.049511
v 0.016359 0.161937 -0.048090
v 0.017419 0.159725 -0.045878
v 0.018100 0.158304 -0.043090
v 0.018334 0.157815 -0.040000
v 0.018334 0.157815 0.040000
v 0.018100 0.158304 0.043090
v 0.017419 0.159725 0.045878
v 0.016359 0.161937 0.048090
v 0.015024 0.164725 0.049511
v 0.013543 0.167815 0.050000
v -0.142457 -0.026185 -0.050000
v -0.136007 -0.023095 -0.049511
v -0.130188 -0.020307 -0.048090
v -0.125570 -0.018095 -0.045878
v -0.122605 -0.016674 -0.043090
v -0.121584 -0.016185 -0.040000
v -0.121584 -0.016185 0.040000
v -0.122605 -0.016674 0.043090
v -0.125570 -0.018095 0.045878
v -0.130188 -0.020307 0.048090
v -0.136007 -0.023095 0.049511
v -0.142457 -0.026185 0.050000
vn -0.0000 -0.0000 1.0000
vn -0.0000 -0.0000 -1.0000
vn 0.1980 0.1980 -0.9600
vn 0.1980 -0.1980 -0.9600
vn 0.0786 -0.0786 -0.9938
vn 0.0786 0.0786 -0.9938
vn 0.3610 0.3610 -0.8599
vn 0.3610 -0.3610 -0.8599
vn 0.5226 0.5226 -0.6737
vn 0.5226 -0.5226 -0.6737
vn 0.6543 0.6543 -0.3792
vn 0.6543 -0.6543 -0.3792
vn 0.7032 0.7032 -0.1048
vn 0.7032 -0.7032 -0.1048
vn 0.7032 0.7032 0.1048
vn 0.7032 -0.7032 0.1048
vn 0.6543 0.6543 0.3792
vn 0.6543 -0.6543 0.3792
vn 0.5226 0.5226 0.6737
vn 0.5226 -0.5226 0.6737
vn 0.3610 0.3610 0.8599
vn 0.3610 -0.3610 0.8599
vn 0.1980 0.1980 0.9600
vn 0.1980 -0.1980 0.9600
vn 0.0786 0.0786 0.9938
vn 0.0786 -0.0786 0.9938
vn 0.1203 -0.1203 -0.9854
vn 0.2882 -0.2882 -0.9131
vn 0.4666 -0.4666 -0.7514
vn 0.6319 -0.6319 -0.4487
vn 0.7024 -0.7024 -0.1157
vn 0.7024 -0.7024 0.1157
vn 0.6319 -0.6319 0.4487
vn 0.4666 -0.4666 0.7514
vn 0.2882 -0.2882 0.9131
vn 0.1203 -0.1203 0.9854
vn -0.1980 -0.1980 -0.9600
vn -0.0786 -0.0786 -0.9938
vn -0.3610 -0.3610 -0.8599
vn -0.5227 -0.5226 -0.6736
vn -0.6542 -0.6543 -0.3793
vn -0.7032 -0.7032 -0.1049
vn -0.7032 -0.7032 0.1049
vn -0.6542 -0.6543 0.3793
vn -0.5227 -0.5226 0.6736
vn -0.3610 -0.3610 0.8599
vn -0.1980 -0.1980 0.9600
vn -0.0786 -0.0786 0.9938
vn -0.1203 -0.1203 -0.9854
vn -0.2882 -0.2882 -0.9131
vn -0.4666 -0.4667 -0.7513
vn -0.6320 -0.6318 -0.4487
vn -0.7023 -0.7024 -0.1158
vn -0.7023 -0.7024 0.1158
vn -0.6320 -0.6318 0.4487
vn -0.4666 -0.4667 0.7513
vn -0.2882 -0.2882 0.9131
vn -0.1203 -0.1203 0.9854
vn -0.3037 0.1084 -0.9466
vn -0.1389 0.0495 -0.9891
vn -0.5535 0.1975 -0.8091
vn -0.7580 0.2704 -0.5936
vn -0.8939 0.3189 -0.3149
vn -0.9387 0.3349 -0.0818
vn -0.9387 0.3349 0.0818
vn -0.8939 0.3189 0.3149
vn -0.7580 0.2704 0.5936
vn -0.5535 0.1975 0.8091
vn -0.3037 0.1084 0.9466
vn -0.1389 0.0495 0.9891
vn -0.1368 0.2885 -0.9477
vn -0.0606 0.1279 -0.9899
vn -0.2479 0.5229 -0.8155
vn -0.3415 0.7202 -0.6039
vn -0.4054 0.8552 -0.3229
vn -0.4269 0.9003 -0.0846
vn -0.4269 0.9003 0.0846
vn -0.4054 0.8552 0.3229
vn -0.3415 0.7202 0.6039
vn -0.2479 0.5229 0.8155
vn -0.1368 0.2885 0.9477
vn -0.0606 0.1279 0.9899
vn 0.1203 0.1203 -0.9854
vn 0.2882 0.2882 -0.9131
vn 0.4666 0.4666 -0.7514
vn 0.6319 0.6319 -0.4487
vn 0.7024 0.7024 -0.1157
vn 0.7024 0.7024 0.1157
vn 0.6319 0.6319 0.4487
vn 0.4666 0.4666 0.7514
vn 0.2882 0.2882 0.9131
vn 0.1203 0.1203 0.9854
vn -0.1203 0.1203 -0.9854
vn -0.5325 0.8288 -0.1721
vn -0.7069 0.7074 -0.0003
vn -0.0786 0.0786 -0.9938
vn -0.2882 0.2882 -0.9131
vn -0.6565 0.7365 -0.1628
vn -0.4666 0.4667 -0.7513
vn -0.7160 0.6850 -0.1348
vn -0.6320 0.6318 -0.4487
vn -0.7567 0.6488 -0.0806
vn -0.7023 0.7024 -0.1158
vn -0.7409 0.6715 -0.0111
vn -0.7023 0.7024 0.1158
vn -0.7409 0.6715 0.0111
vn -0.6320 0.6318 0.4487
vn -0.7567 0.6488 0.0806
vn -0.4666 0.4667 0.7513
vn -0.7160 0.6850 0.1348
vn -0.2882 0.2882 0.9131
vn -0.6565 0.7365 0.1628
vn -0.1203 0.1203 0.9854
vn -0.5325 0.8288 0.1721
vn -0.0786 0.0786 0.9938
vn -0.7069 0.7074 0.0003
vn 0.7588 0.6266 -0.1778
vn 0.9014 0.4329 -0.0000
vn 0.8655 0.4744 -0.1607
vn 0.9089 0.3988 -0.1223
vn 0.9324 0.3553 -0.0667
vn 0.9220 0.3871 -0.0086
vn 0.9220 0.3871 0.0086
vn 0.9324 0.3553 0.0667
vn 0.9089 0.3988 0.1223
vn 0.8655 0.4744 0.1607
vn 0.7588 0.6266 0.1778
vn 0.9014 0.4330 -0.0001
vn 0.0808 0.0387 -0.9960
vn 0.0615 0.0295 -0.9977
vn 0.2206 0.1057 -0.9696
vn 0.4050 0.1941 -0.8935
vn 0.6786 0.3250 -0.6587
vn 0.8845 0.4238 -0.1949
vn 0.8845 0.4238 0.1949
vn 0.6786 0.3250 0.6587
vn 0.4050 0.1941 0.8935
vn 0.2206 0.1057 0.9696
vn 0.0808 0.0387 0.9960
vn 0.0615 0.0295 0.9977
vt 0.500000 0.000000
vt 0.642857 0.000000
vt 0.571429 0.000000
vt 0.928571 0.000000
vt 0.857143 0.000000
vt 0.714286 0.000000
vt 1.000000 0.000000
vt 0.785714 0.000000
vt 0.000000 0.000000
vt 0.071429 0.000000
vt 0.428571 0.000000
vt 0.357143 0.000000
vt 0.285714 0.000000
vt 0.142857 0.000000
vt 0.214286 0.000000
vt 0.000000 0.090909
vt 0.090909 0.090909
vt 0.090909 0.000000
vt 0.000000 0.181818
vt 0.090909 0.181818
vt 0.000000 0.272727
vt 0.090909 0.272727
vt 0.000000 0.363636
vt 0.090909 0.363636
vt 0.000000 0.454545
vt 0.090909 0.454545
vt 0.000000 0.545455
vt 0.090909 0.545455
vt 0.000000 0.636364
vt 0.090909 0.636364
vt 0.000000 0.727273
vt 0.090909 0.727273
vt 0.000000 0.818182
vt 0.090909 0.818182
vt 0.000000 0.909091
vt 0.090909 0.909091
vt 0.000000 1.000000
vt 0.090909 1.000000
vt 0.181818 0.090909
vt 0.181818 0.000000
vt 0.181818 0.181818
vt 0.181818 0.272727
vt 0.181818 0.363636
vt 0.181818 0.454545
vt 0.181818 0.545455
vt 0.181818 0.636364
vt 0.181818 0.727273
vt 0.181818 0.818182
vt 0.181818 0.909091
vt 0.181818 1.000000
vt 0.272727 0.090909
vt 0.272727 0.000000
vt 0.272727 0.181818
vt 0.272727 0.272727
vt 0.272727 0.363636
vt 0.272727 0.454545
vt 0.272727 0.545455
vt 0.272727 0.636364
vt 0.272727 0.727273
vt 0.272727 0.818182
vt 0.272727 0.909091
vt 0.272727 1.000000
vt 0.363636 0.090909
vt 0.363636 0.000000
vt 0.363636 0.181818
vt 0.363636 0.272727
vt 0.363636 0.363636
vt 0.363636 0.454545
vt 0.363636 0.545455
vt 0.363636 0.636364
vt 0.363636 0.727273
vt 0.363636 0.818182
vt 0.363636 0.909091
vt 0.363636 1.000000
vt 0.454545 0.090909
vt 0.454545 0.000000
vt 0.454545 0.181818
vt 0.454545 0.272727
vt 0.454545 0.363636
vt 0.454545 0.454545
vt 0.454545 0.545455
vt 0.454545 0.636364
vt 0.454545 0.727273
vt 0.454545 0.818182
vt 0.454545 0.909091
vt 0.454545 1.000000
vt 0.545455 0.090909
vt 0.545455 0.000000
vt 0.545455 0.181818
vt 0.545455 0.272727
vt 0.545455 0.363636
vt 0.545455 0.454545
vt 0.545455 0.545455
vt 0.545455 0.636364
vt 0.545455 0.727273
vt 0.545455 0.818182
vt 0.545455 0.909091
vt 0.545455 1.000000
vt 0.636364 0.090909
vt 0.636364 0.000000
vt 0.636364 0.181818
vt 0.636364 0.272727
vt 0.636364 0.363636
vt 0.636364 0.454545
vt 0.636364 0.545455
vt 0.636364 0.636364
vt 0.636364 0.727273
vt 0.636364 0.818182
vt 0.636364 0.909091
vt 0.636364 1.000000
vt 0.727273 0.090909
vt 0.727273 0.000000
vt 0.727273 0.181818
vt 0.727273 0.272727
vt 0.727273 0.363636
vt 0.727273 0.454545
vt 0.727273 0.545455
vt 0.727273 0.636364
vt 0.727273 0.727273
vt 0.727273 0.818182
vt 0.727273 0.909091
vt 0.727273 1.000000
vt 0.818182 0.090909
vt 0.818182 0.000000
vt 0.818182 0.181818
vt 0.818182 0.272727
vt 0.818182 0.363636
vt 0.818182 0.454545
vt 0.818182 0.545455
vt 0.818182 0.636364
vt 0.818182 0.727273
vt 0.818182 0.818182
vt 0.818182 0.909091
vt 0.818182 1.000000
vt 0.909091 0.090909
vt 0.909091 0.000000
vt 0.909091 0.181818
vt 0.909091 0.272727
vt 0.909091 0.363636
vt 0.909091 0.454545
vt 0.909091 0.545455
vt 0.909091 0.636364
vt 0.909091 0.727273
vt 0.909091 0.818182
vt 0.909091 0.909091
vt 0.909091 1.000000
vt 1.000000 0.090909
vt 1.000000 0.181818
vt 1.000000 0.272727
vt 1.000000 0.363636
vt 1.000000 0.454545
vt 1.000000 0.545455
vt 1.000000 0.636364
vt 1.000000 0.727273
vt 1.000000 0.818182
vt 1.000000 0.909091
vt 1.000000 1.000000
vt 0.250000 0.090909
vt 0.250000 0.000000
vt 0.250000 0.181818
vt 0.250000 0.272727
vt 0.250000 0.363636
vt 0.250000 0.454545
vt 0.250000 0.545455
vt 0.250000 0.636364
vt 0.250000 0.727273
vt 0.250000 0.818182
vt 0.250000 0.909091
vt 0.250000 1.000000
vt 0.500000 0.090909
vt 0.500000 0.181818
vt 0.500000 0.272727
vt 0.500000 0.363636
vt 0.500000 0.454545
vt 0.500000 0.545455
vt 0.500000 0.636364
vt 0.500000 0.727273
vt 0.500000 0.818182
vt 0.500000 0.909091
vt 0.500000 1.000000
vt 0.750000 0.090909
vt 0.750000 0.000000
vt 0.750000 0.181818
vt 0.750000 0.272727
vt 0.750000 0.363636
vt 0.750000 0.454545
vt 0.750000 0.545455
vt 0.750000 0.636364
vt 0.750000 0.727273
vt 0.750000 0.818182
vt 0.750000 0.909091
vt 0.750000 1.000000
s 0
usemtl Gold.004
f 8/1/1 10/2/1 9/3/1
f 8/1/1 14/4/1 10/2/1
f 14/4/1 13/5/1 10/2/1
f 13/5/1 11/6/1 10/2/1
f 8/1/1 15/7/1 14/4/1
f 12/8/1 11/6/1 13/5/1
f 8/1/1 12/8/1 15/7/1
f 8/1/1 11/6/1 12/8/1
f 8/1/1 1/9/1 11/6/1
f 8/1/1 2/10/1 1/9/1
f 7/11/1 2/10/1 8/1/1
f 6/12/1 2/10/1 7/11/1
f 5/13/1 3/14/1 6/12/1
f 3/14/1 2/10/1 6/12/1
f 5/13/1 4/15/1 3/14/1
f 23/1/2 24/3/2 25/2/2
f 23/1/2 25/2/2 29/4/2
f 29/4/2 25/2/2 28/5/2
f 28/5/2 25/2/2 26/6/2
f 23/1/2 29/4/2 30/7/2
f 27/8/2 28/5/2 26/6/2
f 23/1/2 30/7/2 27/8/2
f 23/1/2 27/8/2 26/6/2
f 23/1/2 26/6/2 16/9/2
f 23/1/2 16/9/2 17/10/2
f 22/11/2 23/1/2 17/10/2
f 21/12/1 22/11/1 17/10/1
f 20/13/2 21/12/2 18/14/2
f 18/14/1 21/12/1 17/10/1
f 20/13/2 18/14/2 19/15/2
s 1
f 32/16/3 44/17/4 43/18/5 31/9/6
f 33/19/7 45/20/8 44/17/4 32/16/3
f 34/21/9 46/22/10 45/20/8 33/19/7
f 35/23/11 47/24/12 46/22/10 34/21/9
f 36/25/13 48/26/14 47/24/12 35/23/11
f 37/27/15 49/28/16 48/26/14 36/25/13
f 38/29/17 50/30/18 49/28/16 37/27/15
f 39/31/19 51/32/20 50/30/18 38/29/17
f 40/33/21 52/34/22 51/32/20 39/31/19
f 41/35/23 53/36/24 52/34/22 40/33/21
f 42/37/25 54/38/26 53/36/24 41/35/23
f 44/17/4 56/39/27 55/40/5 43/18/5
f 45/20/8 57/41/28 56/39/27 44/17/4
f 46/22/10 58/42/29 57/41/28 45/20/8
f 47/24/12 59/43/30 58/42/29 46/22/10
f 48/26/14 60/44/31 59/43/30 47/24/12
f 49/28/16 61/45/32 60/44/31 48/26/14
f 50/30/18 62/46/33 61/45/32 49/28/16
f 51/32/20 63/47/34 62/46/33 50/30/18
f 52/34/22 64/48/35 63/47/34 51/32/20
f 53/36/24 65/49/36 64/48/35 52/34/22
f 54/38/26 66/50/26 65/49/36 53/36/24
f 56/39/27 68/51/4 67/52/5 55/40/5
f 57/41/28 69/53/8 68/51/4 56/39/27
f 58/42/29 70/54/10 69/53/8 57/41/28
f 59/43/30 71/55/12 70/54/10 58/42/29
f 60/44/31 72/56/14 71/55/12 59/43/30
f 61/45/32 73/57/16 72/56/14 60/44/31
f 62/46/33 74/58/18 73/57/16 61/45/32
f 63/47/34 75/59/20 74/58/18 62/46/33
f 64/48/35 76/60/22 75/59/20 63/47/34
f 65/49/36 77/61/24 76/60/22 64/48/35
f 66/50/26 78/62/26 77/61/24 65/49/36
f 68/51/4 80/63/37 79/64/38 67/52/5
f 69/53/8 81/65/39 80/63/37 68/51/4
f 70/54/10 82/66/40 81/65/39 69/53/8
f 71/55/12 83/67/41 82/66/40 70/54/10
f 72/56/14 84/68/42 83/67/41 71/55/12
f 73/57/16 85/69/43 84/68/42 72/56/14
f 74/58/18 86/70/44 85/69/43 73/57/16
f 75/59/20 87/71/45 86/70/44 74/58/18
f 76/60/22 88/72/46 87/71/45 75/59/20
f 77/61/24 89/73/47 88/72/46 76/60/22
f 78/62/26 90/74/48 89/73/47 77/61/24
f 80/63/37 92/75/49 91/76/38 79/64/38
f 81/65/39 93/77/50 92/75/49 80/63/37
f 82/66/40 94/78/51 93/77/50 81/65/39
f 83/67/41 95/79/52 94/78/51 82/66/40
f 84/68/42 96/80/53 95/79/52 83/67/41
f 85/69/43 97/81/54 96/80/53 84/68/42
f 86/70/44 98/82/55 97/81/54 85/69/43
f 87/71/45 99/83/56 98/82/55 86/70/44
f 88/72/46 100/84/57 99/83/56 87/71/45
f 89/73/47 101/85/58 100/84/57 88/72/46
f 90/74/48 102/86/48 101/85/58 89/73/47
f 92/75/49 104/87/37 103/88/38 91/76/38
f 93/77/50 105/89/39 104/87/37 92/75/49
f 94/78/51 106/90/40 105/89/39 93/77/50
f 95/79/52 107/91/41 106/90/40 94/78/51
f 96/80/53 108/92/42 107/91/41 95/79/52
f 97/81/54 109/93/43 108/92/42 96/80/53
f 98/82/55 110/94/44 109/93/43 97/81/54
f 99/83/56 111/95/45 110/94/44 98/82/55
f 100/84/57 112/96/46 111/95/45 99/83/56
f 101/85/58 113/97/47 112/96/46 100/84/57
f 102/86/48 114/98/48 113/97/47 101/85/58
f 104/87/37 116/99/59 115/100/60 103/88/38
f 105/89/39 117/101/61 116/99/59 104/87/37
f 106/90/40 118/102/62 117/101/61 105/89/39
f 107/91/41 119/103/63 118/102/62 106/90/40
f 108/92/42 120/104/64 119/103/63 107/91/41
f 109/93/43 121/105/65 120/104/64 108/92/42
f 110/94/44 122/106/66 121/105/65 109/93/43
f 111/95/45 123/107/67 122/106/66 110/94/44
f 112/96/46 124/108/68 123/107/67 111/95/45
f 113/97/47 125/109/69 124/108/68 112/96/46
f 114/98/48 126/110/70 125/109/69 113/97/47
f 116/99/59 128/111/71 127/112/72 115/100/60
f 117/101/61 129/113/73 128/111/71 116/99/59
f 118/102/62 130/114/74 129/113/73 117/101/61
f 119/103/63 131/115/75 130/114/74 118/102/62
f 120/104/64 132/116/76 131/115/75 119/103/63
f 121/105/65 133/117/77 132/116/76 120/104/64
f 122/106/66 134/118/78 133/117/77 121/105/65
f 123/107/67 135/119/79 134/118/78 122/106/66
f 124/108/68 136/120/80 135/119/79 123/107/67
f 125/109/69 137/121/81 136/120/80 124/108/68
f 126/110/70 138/122/82 137/121/81 125/109/69
f 128/111/71 140/123/3 139/124/6 127/112/72
f 129/113/73 141/125/7 140/123/3 128/111/71
f 130/114/74 142/126/9 141/125/7 129/113/73
f 131/115/75 143/127/11 142/126/9 130/114/74
f 132/116/76 144/128/13 143/127/11 131/115/75
f 133/117/77 145/129/15 144/128/13 132/116/76
f 134/118/78 146/130/17 145/129/15 133/117/77
f 135/119/79 147/131/19 146/130/17 134/118/78
f 136/120/80 148/132/21 147/131/19 135/119/79
f 137/121/81 149/133/23 148/132/21 136/120/80
f 138/122/82 150/134/25 149/133/23 137/121/81
f 140/123/3 152/135/83 151/136/6 139/124/6
f 141/125/7 153/137/84 152/135/83 140/123/3
f 142/126/9 154/138/85 153/137/84 141/125/7
f 143/127/11 155/139/86 154/138/85 142/126/9
f 144/128/13 156/140/87 155/139/86 143/127/11
f 145/129/15 157/141/88 156/140/87 144/128/13
f 146/130/17 158/142/89 157/141/88 145/129/15
f 147/131/19 159/143/90 158/142/89 146/130/17
f 148/132/21 160/144/91 159/143/90 147/131/19
f 149/133/23 161/145/92 160/144/91 148/132/21
f 150/134/25 162/146/25 161/145/92 149/133/23
f 152/135/83 32/147/3 31/7/6 151/136/6
f 153/137/84 33/148/7 32/147/3 152/135/83
f 154/138/85 34/149/9 33/148/7 153/137/84
f 155/139/86 35/150/11 34/149/9 154/138/85
f 156/140/87 36/151/13 35/150/11 155/139/86
f 157/141/88 37/152/15 36/151/13 156/140/87
f 158/142/89 38/153/17 37/152/15 157/141/88
f 159/143/90 39/154/19 38/153/17 158/142/89
f 160/144/91 40/155/21 39/154/19 159/143/90
f 161/145/92 41/156/23 40/155/21 160/144/91
f 162/146/25 42/157/25 41/156/23 161/145/92
f 164/16/93 176/158/94 175/159/95 163/9/96
f 165/19/97 177/160/98 176/158/94 164/16/93
f 166/21/99 178/161/100 177/160/98 165/19/97
f 167/23/101 179/162/102 178/161/100 166/21/99
f 168/25/103 180/163/104 179/162/102 167/23/101
f 169/27/105 181/164/106 180/163/104 168/25/103
f 170/29/107 182/165/108 181/164/106 169/27/105
f 171/31/109 183/166/110 182/165/108 170/29/107
f 172/33/111 184/167/112 183/166/110 171/31/109
f 173/35/113 185/168/114 184/167/112 172/33/111
f 174/37/115 186/169/116 185/168/114 173/35/113
f 176/158/94 188/170/117 187/1/118 175/159/95
f 177/160/98 189/171/119 188/170/117 176/158/94
f 178/161/100 190/172/120 189/171/119 177/160/98
f 179/162/102 191/173/121 190/172/120 178/161/100
f 180/163/104 192/174/122 191/173/121 179/162/102
f 181/164/106 193/175/123 192/174/122 180/163/104
f 182/165/108 194/176/124 193/175/123 181/164/106
f 183/166/110 195/177/125 194/176/124 182/165/108
f 184/167/112 196/178/126 195/177/125 183/166/110
f 185/168/114 197/179/127 196/178/126 184/167/112
f 186/169/116 198/180/128 197/179/127 185/168/114
f 188/170/117 200/181/129 199/182/130 187/1/118
f 189/171/119 201/183/131 200/181/129 188/170/117
f 190/172/120 202/184/132 201/183/131 189/171/119
f 191/173/121 203/185/133 202/184/132 190/172/120
f 192/174/122 204/186/134 203/185/133 191/173/121
f 193/175/123 205/187/135 204/186/134 192/174/122
f 194/176/124 206/188/136 205/187/135 193/175/123
f 195/177/125 207/189/137 206/188/136 194/176/124
f 196/178/126 208/190/138 207/189/137 195/177/125
f 197/179/127 209/191/139 208/190/138 196/178/126
f 198/180/128 210/192/140 209/191/139 197/179/127
f 200/181/129 164/147/93 163/7/96 199/182/130
f 201/183/131 165/148/97 164/147/93 200/181/129
f 202/184/132 166/149/99 165/148/97 201/183/131
f 203/185/133 167/150/101 166/149/99 202/184/132
f 204/186/134 168/151/103 167/150/101 203/185/133
f 205/187/135 169/152/105 168/151/103 204/186/134
f 206/188/136 170/153/107 169/152/105 205/187/135
f 207/189/137 171/154/109 170/153/107 206/188/136
f 208/190/138 172/155/111 171/154/109 207/189/137
f 209/191/139 173/156/113 172/155/111 208/190/138
f 210/192/140 174/157/115 173/156/113 209/191/139
