# Blender 4.1.1
# www.blender.org
mtllib Placa_Balanca.mtl
o Circle
v 0.000000 0.000000 -1.000000
v -0.195090 0.000000 -0.980785
v -0.382683 0.000000 -0.923880
v -0.555570 0.000000 -0.831470
v -0.707107 0.000000 -0.707107
v -0.831470 0.000000 -0.555570
v -0.923880 0.000000 -0.382683
v -0.980785 0.000000 -0.195090
v -1.000000 0.000000 0.000000
v -0.980785 0.000000 0.195090
v -0.923880 0.000000 0.382683
v -0.831470 0.000000 0.555570
v -0.707107 0.000000 0.707107
v -0.555570 0.000000 0.831470
v -0.382683 0.000000 0.923880
v -0.195090 0.000000 0.980785
v 0.000000 0.000000 1.000000
v 0.195090 0.000000 0.980785
v 0.382683 0.000000 0.923880
v 0.555570 0.000000 0.831470
v 0.707107 0.000000 0.707107
v 0.831470 0.000000 0.555570
v 0.923880 0.000000 0.382683
v 0.980785 0.000000 0.195090
v 1.000000 0.000000 0.000000
v 0.980785 0.000000 -0.195090
v 0.923880 0.000000 -0.382683
v 0.831470 0.000000 -0.555570
v 0.707107 0.000000 -0.707107
v 0.555570 0.000000 -0.831470
v 0.382683 0.000000 -0.923880
v 0.195090 0.000000 -0.980785
v -0.019873 0.056782 -1.000274
v -0.214964 0.056782 -0.981059
v -0.402557 0.056782 -0.924153
v -0.575443 0.056782 -0.831743
v -0.726980 0.056782 -0.707381
v -0.851343 0.056782 -0.555844
v -0.943753 0.056782 -0.382957
v -1.000658 0.056782 -0.195364
v -1.019873 0.056782 -0.000274
v -1.000658 0.056782 0.194816
v -0.943753 0.056782 0.382410
v -0.851343 0.056782 0.555296
v -0.726980 0.056782 0.706833
v -0.575443 0.056782 0.831196
v -0.402557 0.056782 0.923606
v -0.214964 0.056782 0.980511
v -0.019873 0.056782 0.999726
v 0.175217 0.056782 0.980511
v 0.362810 0.056782 0.923606
v 0.535697 0.056782 0.831196
v 0.687234 0.056782 0.706833
v 0.811596 0.056782 0.555296
v 0.904006 0.056782 0.382410
v 0.960912 0.056782 0.194816
v 0.980127 0.056782 -0.000274
v 0.960912 0.056782 -0.195364
v 0.904006 0.056782 -0.382957
v 0.811596 0.056782 -0.555844
v 0.687234 0.056782 -0.707381
v 0.535697 0.056782 -0.831743
v 0.362810 0.056782 -0.924153
v 0.175217 0.056782 -0.981059
vn -0.4648 -0.1669 -0.8696
vn 0.4654 0.1587 -0.8707
vn 0.0979 0.0391 0.9944
vn -0.6188 -0.2202 -0.7540
vn 0.2889 0.0965 -0.9525
vn 0.2887 0.1056 0.9516
vn -0.7456 -0.2639 -0.6119
vn 0.0980 0.0295 -0.9948
vn 0.4648 0.1669 0.8696
vn -0.8422 -0.2969 -0.4501
vn 0.6188 0.2202 0.7540
vn -0.9070 -0.3188 -0.2751
vn 0.7456 0.2639 0.6119
vn -0.9397 -0.3293 -0.0925
vn 0.8422 0.2969 0.4501
vn -0.9399 -0.3285 0.0926
vn 0.9070 0.3188 0.2751
vn -0.9078 -0.3164 0.2754
vn 0.9397 0.3293 0.0925
vn -0.8432 -0.2929 0.4507
vn 0.9399 0.3285 -0.0926
vn -0.7468 -0.2584 0.6128
vn 0.9078 0.3164 -0.2754
vn -0.6198 -0.2133 0.7552
vn 0.8432 0.2929 -0.4507
vn -0.4654 -0.1587 0.8707
vn -0.0979 -0.0391 -0.9944
vn 0.7468 0.2584 -0.6128
vn -0.2889 -0.0965 0.9525
vn -0.2887 -0.1056 -0.9516
vn 0.6198 0.2133 -0.7552
vn -0.0980 -0.0295 0.9948
vn -0.0000 -1.0000 -0.0000
vn -0.0000 1.0000 -0.0000
vt 0.000000 0.000000
s 0
f 4/1/1 36/1/1 35/1/1 3/1/1
f 31/1/2 63/1/2 62/1/2 30/1/2
f 18/1/3 50/1/3 49/1/3 17/1/3
f 5/1/4 37/1/4 36/1/4 4/1/4
f 32/1/5 64/1/5 63/1/5 31/1/5
f 19/1/6 51/1/6 50/1/6 18/1/6
f 6/1/7 38/1/7 37/1/7 5/1/7
f 1/1/8 33/1/8 64/1/8 32/1/8
f 20/1/9 52/1/9 51/1/9 19/1/9
f 7/1/10 39/1/10 38/1/10 6/1/10
f 21/1/11 53/1/11 52/1/11 20/1/11
f 8/1/12 40/1/12 39/1/12 7/1/12
f 22/1/13 54/1/13 53/1/13 21/1/13
f 9/1/14 41/1/14 40/1/14 8/1/14
f 23/1/15 55/1/15 54/1/15 22/1/15
f 10/1/16 42/1/16 41/1/16 9/1/16
f 24/1/17 56/1/17 55/1/17 23/1/17
f 11/1/18 43/1/18 42/1/18 10/1/18
f 25/1/19 57/1/19 56/1/19 24/1/19
f 12/1/20 44/1/20 43/1/20 11/1/20
f 26/1/21 58/1/21 57/1/21 25/1/21
f 13/1/22 45/1/22 44/1/22 12/1/22
f 27/1/23 59/1/23 58/1/23 26/1/23
f 14/1/24 46/1/24 45/1/24 13/1/24
f 28/1/25 60/1/25 59/1/25 27/1/25
f 15/1/26 47/1/26 46/1/26 14/1/26
f 2/1/27 34/1/27 33/1/27 1/1/27
f 29/1/28 61/1/28 60/1/28 28/1/28
f 16/1/29 48/1/29 47/1/29 15/1/29
f 3/1/30 35/1/30 34/1/30 2/1/30
f 30/1/31 62/1/31 61/1/31 29/1/31
f 17/1/32 49/1/32 48/1/32 16/1/32
f 2/1/33 1/1/33 32/1/33 31/1/33 30/1/33 29/1/33 28/1/33 27/1/33 26/1/33 25/1/33 24/1/33 23/1/33 22/1/33 21/1/33 20/1/33 19/1/33 18/1/33 17/1/33 16/1/33 15/1/33 14/1/33 13/1/33 12/1/33 11/1/33 10/1/33 9/1/33 8/1/33 7/1/33 6/1/33 5/1/33 4/1/33 3/1/33
f 34/1/34 35/1/34 36/1/34 37/1/34 38/1/34 39/1/34 40/1/34 41/1/34 42/1/34 43/1/34 44/1/34 45/1/34 46/1/34 47/1/34 48/1/34 49/1/34 50/1/34 51/1/34 52/1/34 53/1/34 54/1/34 55/1/34 56/1/34 57/1/34 58/1/34 59/1/34 60/1/34 61/1/34 62/1/34 63/1/34 64/1/34 33/1/34
