mtllib TIEINTERCEPTOR.mtl
v 3.153710 1.049805 -4.760742
v 3.153710 1.049805 1.147461
v 3.446678 1.049805 1.147461
v 3.153710 -1.049805 1.147461
v 3.153710 -1.049805 -4.760742
v 3.446678 -1.049805 1.147461
v 1.542382 3.808594 3.344727
v 3.446678 1.049805 4.760742
v 3.153710 1.049805 4.760742
v 3.446678 -1.049805 4.760742
v 3.153710 -1.049805 4.760742
v 1.542382 -3.808594 3.344727
v 1.542382 3.808594 1.586914
v 1.542382 -3.808594 1.586914
v 3.152267 -0.059315 2.043487
v 1.368997 -0.056009 2.502640
v 1.562019 0.592939 1.684996
v 3.152225 0.285872 1.703914
v 3.151539 -0.397722 1.703914
v 1.569975 -0.697506 1.684996
v 3.152267 -0.059315 1.384308
v 1.368997 -0.056009 0.891312
v -3.153709 1.049805 -4.760742
v -3.153709 1.049805 1.147461
v -3.446678 1.049805 1.147461
v -3.153709 -1.049805 1.147461
v -3.153709 -1.049805 -4.760742
v -3.446678 -1.049805 1.147461
v -1.542382 3.808594 3.344727
v -3.446678 1.049805 4.760742
v -3.153709 1.049805 4.760742
v -3.446678 -1.049805 4.760742
v -3.153709 -1.049805 4.760742
v -1.542382 -3.808594 3.344727
v -1.542382 3.808594 1.586914
v -1.542382 -3.808594 1.586914
v -3.152266 -0.059315 2.043487
v -1.368997 -0.056009 2.502640
v -1.562020 0.592939 1.684996
v -3.152225 0.285872 1.703914
v -3.151539 -0.397722 1.703914
v -1.569977 -0.697506 1.684996
v -3.152266 -0.059315 1.384308
v -1.368997 -0.056009 0.891312
v 1.352861 0.504870 2.520677
v 1.562149 0.591560 1.687156
v 1.562149 -0.702567 1.687156
v 1.352861 -0.615877 2.520677
v -1.352861 -0.615876 2.520677
v -1.562149 -0.702566 1.687156
v -1.562148 0.591560 1.687156
v -1.352861 0.504870 2.520677
v 0.781075 0.268028 3.130857
v 0.781075 -0.379035 3.130857
v -0.781075 -0.379035 3.130857
v -0.781075 0.268028 3.130857
v 0.007638 -0.055503 3.354198
v 1.352861 0.504870 0.853635
v 1.352861 -0.615877 0.853635
v 0.000511 -0.055503 0.242810
v 0.781075 -0.379035 0.243455
v 0.781075 0.268028 0.243455
v -0.781075 0.268028 0.243455
v -0.781075 -0.379035 0.243455
v -1.352861 -0.615876 0.853635
v -1.352861 0.504870 0.853635
v -0.551671 0.499850 0.238226
v -0.296649 0.670101 0.238226
v 0.004169 0.729885 0.238226
v 0.304987 0.670101 0.238226
v 0.560009 0.499850 0.238226
v 0.560009 -0.610857 0.238226
v 0.304987 -0.781108 0.238226
v 0.004169 -0.840892 0.238226
v -0.296649 -0.781108 0.238226
v -0.551671 -0.610857 0.238226
v -0.958574 0.906397 0.850421
v -0.516864 1.201280 0.850421
v 0.004169 1.304829 0.850421
v 0.525201 1.201280 0.850421
v 0.966911 0.906397 0.850421
v 0.966911 -1.017404 0.850421
v 0.525201 -1.312287 0.850421
v 0.004169 -1.415836 0.850421
v -0.516864 -1.312287 0.850421
v -0.958574 -1.017404 0.850421
v -1.107510 1.055203 1.686694
v -0.597468 1.395705 1.686694
v 0.004169 1.515273 1.686694
v 0.605806 1.395705 1.686694
v 1.115848 1.055203 1.686694
v 1.115848 -1.166210 1.686694
v 0.605806 -1.506711 1.686694
v 0.004169 -1.626280 1.686694
v -0.597468 -1.506711 1.686694
v -1.107510 -1.166210 1.686694
v -0.958574 0.906397 2.522966
v -0.516864 1.201280 2.522966
v 0.004169 1.304829 2.522966
v 0.525201 1.201280 2.522966
v 0.966911 0.906397 2.522966
v 0.966911 -1.017404 2.522966
v 0.525201 -1.312287 2.522966
v 0.004169 -1.415836 2.522966
v -0.516864 -1.312287 2.522966
v -0.958574 -1.017404 2.522966
v -0.551671 0.499850 3.135161
v -0.296649 0.670101 3.135161
v 0.004169 0.729885 3.135161
v 0.304987 0.670101 3.135161
v 0.560009 0.499850 3.135161
v 0.560009 -0.610857 3.135161
v 0.304987 -0.781108 3.135161
v 0.004169 -0.840892 3.135161
v -0.296649 -0.781108 3.135161
v -0.551671 -0.610857 3.135161
vt 1.000000 1.000000
vt 1.000000 0.012500
vt 0.007299 0.012500
vt 0.007299 1.000000
vt 1.000000 0.990385
vt 0.153631 0.000000
vt 0.002793 0.990385
vt 0.382682 0.990385
vt 0.335196 0.000000
vt 0.148876 0.008333
vt 0.997191 1.000000
vt 0.379214 1.000000
vt 0.331461 0.008333
vt 0.000000 1.000000
vt 0.997191 0.991667
vt 0.000000 0.991667
vt 0.148876 0.000000
vt 0.331461 0.000000
vt 0.379214 0.991667
vt 0.000000 0.987500
vt 0.992647 0.987500
vt 0.992647 0.000000
vt 0.000000 0.000000
vt 0.083333 1.000000
vt 0.083333 0.012500
vt 0.150838 -0.007874
vt -0.005587 0.968504
vt 0.991620 1.000000
vt 0.335196 0.007874
vt 0.371508 1.000000
vt 0.000000 0.004202
vt 0.833333 0.638656
vt 0.983333 0.638656
vt 0.833333 0.365546
vt 0.983333 0.365546
vt 0.985075 0.760000
vt 0.985075 0.260000
vt 0.104478 1.000000
vt 0.945206 0.480000
vt 0.972603 0.220000
vt 0.178082 0.000000
vt 0.000000 0.500000
vt 0.986301 0.740000
vt 0.191781 0.980000
vt 0.104478 0.020000
vt 0.985075 0.520000
vt 0.000000 0.520000
vt 0.013699 1.000000
vt 1.000000 0.363636
vt 0.013699 0.003497
vt 0.997207 1.000000
vt 0.997207 0.992308
vt 0.159218 0.000000
vt 0.000000 0.953846
vt 0.343575 0.015385
vt 0.377095 0.984615
vt 0.992701 1.000000
vt 0.000000 0.012500
vt 0.992701 0.012500
vt 1.000000 0.991667
vt 0.002809 0.991667
vt 0.151685 0.000000
vt 0.334270 0.000000
vt 0.382023 0.991667
vt 1.000000 0.639860
vt 0.849315 0.639860
vt 0.849315 0.363636
vt 0.379888 1.000000
vt 0.332402 0.009615
vt 0.150838 0.009615
vt 1.000000 0.260000
vt 1.000000 0.760000
vt 0.119403 1.000000
vt 0.945206 0.489796
vt 0.000000 0.489796
vt 0.191781 0.979592
vt 0.986301 0.755102
vt 0.986301 0.244898
vt 0.205479 0.000000
vt 1.000000 0.520000
vt 0.119403 0.020000
vt 0.014925 0.520000
vt 1.000000 0.934426
vt 0.488281 0.478449
vt 0.689749 0.308903
vt 0.598603 0.236542
vt 0.011765 0.081967
vt 0.011765 0.934426
vt 1.000000 0.081967
vt 0.505882 0.016393
vt 0.505882 0.508197
vt 0.011765 0.508197
vt 0.505882 1.000000
vt 1.000000 0.508197
vt 0.313559 0.008772
vt 0.694915 0.008772
vt 0.693548 0.002387
vt 0.308756 0.002387
vt 0.854839 0.114559
vt 0.808756 0.162291
vt 0.665899 0.066826
vt 0.997696 0.267303
vt 0.930876 0.295943
vt 0.748848 0.374702
vt 0.677419 0.298329
vt 0.596774 0.241050
vt 0.500000 0.031026
vt 0.500000 0.221957
vt 0.334101 0.066826
vt 0.405530 0.241050
vt 0.193548 0.162291
vt 0.322581 0.298329
vt 0.066820 0.295943
vt 0.248848 0.374702
vt 0.145161 0.114559
vt 0.000000 0.267303
vt 0.066820 0.665871
vt 0.248848 0.587112
vt 0.000000 0.694511
vt 0.145161 0.847255
vt 0.193548 0.799523
vt 0.322581 0.665871
vt 0.334101 0.897375
vt 0.405530 0.720764
vt 0.308756 0.961814
vt 0.500000 0.482100
vt 0.748848 0.587112
vt 0.677419 0.665871
vt 0.596774 0.720764
vt 0.500000 0.739857
vt 0.500000 0.930788
vt 0.500000 1.000000
vt 0.693548 0.961814
vt 0.665899 0.897375
vt 0.854839 0.847255
vt 0.808756 0.799523
vt 0.997696 0.694511
vt 0.930876 0.665871
vt 0.675115 0.701671
vt 0.748848 0.625298
vt 0.066820 0.704057
vt 0.000000 0.732697
vt 0.066820 0.334129
vt 0.000000 0.305489
vt 0.497696 0.517900
vt 0.508475 0.228070
vt 0.601695 0.245614
vt 0.669492 0.070175
vt 0.508475 0.043860
vt 0.406780 0.245614
vt 0.338983 0.070175
vt 0.330509 0.307018
vt 0.203390 0.175439
vt 0.254237 0.377193
vt 0.076271 0.307018
vt 0.152542 0.122807
vt 0.008475 0.271930
vt 0.813559 0.175439
vt 0.855932 0.122807
vt 0.677966 0.307018
vt 0.932203 0.307018
vt 1.000000 0.271930
vt 0.754237 0.377193
vt 0.254237 0.596491
vt 0.076271 0.666667
vt 0.008475 0.701754
vt 0.330509 0.666667
vt 0.203390 0.798246
vt 0.152542 0.850877
vt 0.338983 0.903509
vt 0.313559 0.964912
vt 0.406780 0.728070
vt 0.508475 0.482456
vt 0.754237 0.596491
vt 0.932203 0.666667
vt 0.601695 0.728070
vt 0.677966 0.666667
vt 0.508475 0.745614
vt 0.508475 0.929825
vt 0.508475 1.000000
vt 0.669492 0.903509
vt 0.694915 0.964912
vt 0.813559 0.798246
vt 0.855932 0.850877
vt 1.000000 0.701754
vn -0.021191 0.032840 -0.010156
vn 0.528448 0.028011 -0.208125
vn -0.465875 -0.011927 0.472413
vn -0.545401 -0.401738 -0.200000
vn -0.545401 0.401738 -0.200000
vn -0.465875 0.011927 0.472413
vn -0.014747 0.310789 -0.013542
vn 0.410560 -0.035013 -0.260156
vn -0.021191 -0.032840 -0.010156
vn -0.013508 -0.173455 0.296551
vn -0.431751 -0.023855 0.444827
vn 0.000000 0.000000 1.000000
vn 0.000000 -0.456636 0.889653
vn 0.000000 -1.000000 0.000000
vn 0.819262 0.571979 -0.040625
vn 0.821120 0.570026 -0.020312
vn 0.819262 -0.571979 -0.040625
vn 0.821120 -0.570026 -0.020312
vn 0.822978 -0.568073 0.000000
vn 1.000000 0.000000 0.000000
vn 0.151725 -0.000775 0.700842
vn 0.603002 0.467798 0.009778
vn 0.153294 0.717575 0.029333
vn 0.163700 -0.723654 0.025154
vn 0.606470 -0.469824 0.008385
vn 0.165269 -0.005304 -0.646355
vn 0.014747 -0.310789 -0.013542
vn -0.528448 0.028010 -0.208125
vn 0.021191 0.032840 -0.010156
vn 0.014747 0.310789 -0.013542
vn 0.021191 -0.032840 -0.010156
vn -0.528448 -0.028010 -0.208125
vn 0.013508 -0.173455 0.296551
vn -0.455745 -0.256177 0.472413
vn 0.465875 -0.011927 0.472413
vn 0.465875 0.011927 0.472413
vn 0.545401 0.401738 -0.200000
vn 0.545401 -0.401738 -0.200000
vn 0.431751 -0.023855 0.444827
vn 0.000000 0.000000 1.000000
vn -0.821120 0.570026 -0.020312
vn -0.822978 0.568073 0.000000
vn -0.819262 0.571979 -0.040625
vn -1.000000 0.000000 0.000000
vn -0.822978 -0.568073 0.000000
vn -0.821120 -0.570026 -0.020312
vn -0.819262 -0.571979 -0.040625
vn -0.151180 -0.004793 0.634419
vn -0.602558 0.466267 -0.014986
vn -0.151961 0.712984 -0.044958
vn -0.166400 -0.718130 -0.040331
vn -0.607371 -0.467983 -0.013444
vn -0.167181 -0.000353 -0.719709
vn -0.233545 -0.274580 -0.840837
vn 0.000015 0.000000 -0.999948
vn 0.316034 0.121202 -0.842768
vn 0.316509 -0.121664 -0.842065
vn 0.731118 0.293148 -0.465015
vn 0.731648 -0.293663 -0.464008
vn -0.728499 -0.296454 -0.464421
vn -0.728716 0.296669 -0.464035
vn -0.315119 0.123107 -0.842084
vn -0.314917 -0.122906 -0.842387
vn -0.540667 0.651446 -0.461527
vn -0.320001 0.773189 -0.458604
vn -0.136809 0.330565 -0.838768
vn -0.233747 0.274781 -0.840535
vn 0.000000 0.836824 -0.458568
vn 0.320001 0.773189 -0.458603
vn 0.136814 0.330574 -0.838768
vn 0.000001 0.357784 -0.838746
vn 0.543069 0.647925 -0.462507
vn 0.543599 -0.648440 -0.461501
vn 0.320001 -0.773189 -0.458603
vn 0.136814 -0.330574 -0.838768
vn 0.235141 -0.273344 -0.840515
vn 0.000000 -0.836824 -0.458568
vn -0.320001 -0.773189 -0.458604
vn -0.136809 -0.330565 -0.838768
vn 0.000001 -0.357784 -0.838746
vn -0.540450 -0.651231 -0.461914
vn 0.834487 0.335811 0.000036
vn 0.834603 -0.335924 -0.000002
vn -0.831202 -0.339361 0.000003
vn -0.831233 0.339392 0.000000
vn -0.615811 0.743118 0.000000
vn -0.364148 0.879847 0.000000
vn 0.364148 0.879847 0.000000
vn 0.619065 0.739536 0.000036
vn 0.619181 -0.739650 -0.000002
vn 0.364148 -0.879847 0.000000
vn 0.000000 -0.952242 0.000000
vn -0.364148 -0.879847 0.000000
vn -0.615780 -0.743087 0.000003
vn 0.000000 0.952242 0.000000
vn -0.320001 0.773189 0.458604
vn 0.000000 0.836824 0.458568
vn 0.435521 0.167549 0.824093
vn 0.436277 -0.168290 0.822973
vn 0.733328 -0.291926 0.463976
vn 0.732511 0.291124 0.465437
vn -0.431168 -0.171089 0.823931
vn -0.431447 0.171373 0.823509
vn -0.729145 0.296233 0.464030
vn -0.728850 -0.295933 0.464540
vn 0.001159 0.000000 0.962177
vn -0.320862 0.381011 0.821939
vn -0.189113 0.456999 0.819777
vn 0.000022 0.494831 0.819690
vn 0.189310 0.457371 0.819656
vn 0.320001 0.773189 0.458604
vn 0.323870 0.377450 0.822788
vn 0.324626 -0.378191 0.821668
vn 0.189310 -0.457371 0.819656
vn 0.320001 -0.773189 0.458604
vn 0.545279 -0.646703 0.461468
vn 0.000022 -0.494831 0.819691
vn -0.189113 -0.456999 0.819777
vn -0.320001 -0.773189 0.458604
vn 0.000000 -0.836824 0.458568
vn -0.320584 -0.380727 0.822361
vn -0.541095 0.651010 0.461523
vn 0.544462 0.645901 0.462930
vn -0.540801 -0.650710 0.462033
o 000.Wing
usemtl TIEINTERCEPTOR_Tex00000
f 1/28/15 13/29/16 3/30/16
f 13/29/16 7/26/15 8/27/15 3/30/16
usemtl TIEINTERCEPTOR_Tex00002
f 3/2/20 8/3/20 10/4/20 6/1/20
f 9/20/3 2/21/4 4/22/5 11/23/6
usemtl TIEINTERCEPTOR_Tex00000
f 5/5/17 6/8/18 14/9/18
f 12/6/19 14/9/18 6/8/18 10/7/1
usemtl TIEINTERCEPTOR_Tex00000
f 1/11/14 2/12/4 13/13/1
f 7/10/11 13/13/1 2/12/4 9/14/3
usemtl TIEINTERCEPTOR_Tex00000
f 5/15/7 14/18/9 4/19/5
f 14/18/9 12/17/10 11/16/6 4/19/5
usemtl TIEINTERCEPTOR_Tex00003
f 4/2/5 2/1/4 3/24/2 6/25/8
usemtl TIEINTERCEPTOR_Tex00004
f 7/14/11 9/32/3 8/33/12
f 8/33/12 9/32/3 11/34/6 10/35/13
f 10/35/13 11/34/6 12/31/10
f 4/35/5 6/34/8 5/31/7
f 1/35/14 3/34/2 2/31/4
o 001.MiscHull
usemtl TIEINTERCEPTOR_Tex00005
f 19/36/24 20/38/25 22/47/26 21/46/26
f 21/46/26 22/47/26 17/45/22 18/37/23
f 15/39/21 18/40/23 17/41/22 16/42/21
f 19/43/24 15/39/21 16/42/21 20/44/25
o 002.Wing
usemtl TIEINTERCEPTOR_Tex00000
f 23/51/43 25/68/41 35/69/41
f 35/69/41 25/68/41 30/14/42 29/70/42
usemtl TIEINTERCEPTOR_Tex00000
f 27/52/47 36/55/46 28/56/46
f 34/53/45 32/54/45 28/56/46 36/55/46
usemtl TIEINTERCEPTOR_Tex00002
f 25/59/44 28/57/44 32/14/44 30/58/44
f 31/23/35 33/20/36 26/21/37 24/22/38
usemtl TIEINTERCEPTOR_Tex00000
f 27/60/30 26/64/37 36/63/31
usemtl TIEINTERCEPTOR_Tex00000
f 36/63/31 26/64/37 33/61/36 34/62/33
usemtl TIEINTERCEPTOR_Tex00000
f 23/15/27 35/18/29 24/19/38
f 29/17/39 31/16/35 24/19/38 35/18/29
usemtl TIEINTERCEPTOR_Tex00003
f 26/25/37 28/2/32 25/1/28 24/24/38
usemtl TIEINTERCEPTOR_Tex00004
f 29/48/39 30/65/40 31/66/35
f 30/65/40 32/49/34 33/67/36 31/66/35
f 32/49/34 34/50/33 33/67/36
f 26/35/37 27/34/30 28/31/32
f 23/35/27 24/34/38 25/31/28
o 003.MiscHull
usemtl TIEINTERCEPTOR_Tex00005
f 41/72/51 43/80/53 44/82/53 42/73/52
f 43/80/53 40/71/50 39/81/49 44/82/53
f 37/74/48 38/75/48 39/76/49 40/77/50
f 41/78/51 42/79/52 38/75/48 37/74/48
o 004.MainHull
usemtl TIEINTERCEPTOR_Tex00006
f 60/126/55 62/104/56 61/127/57
f 60/126/55 64/118/63 63/114/62
f 58/103/58 59/138/59 61/127/57 62/104/56
f 65/117/60 66/113/61 63/114/62 64/118/63
f 60/126/55 63/114/62 67/112/67
f 60/84/55 67/85/67 68/86/66
f 60/126/55 68/110/66 69/108/71
f 60/126/55 69/108/71 70/106/70
f 60/126/55 70/106/70 71/105/54
f 60/126/55 71/105/54 62/104/56
f 60/126/55 61/127/57 72/128/76
f 60/126/55 72/128/76 73/129/75
f 60/126/55 73/129/75 74/130/80
f 60/126/55 74/130/80 75/124/79
f 60/126/55 75/124/79 76/122/54
f 60/126/55 76/122/54 64/118/63
f 66/113/61 77/111/64 67/112/67 63/114/62
f 77/111/64 78/109/65 68/110/66 67/112/67
f 78/109/65 79/107/68 69/108/71 68/110/66
f 79/107/68 80/101/69 70/106/70 69/108/71
f 80/101/69 81/100/72 71/105/54 70/106/70
f 81/100/72 58/103/58 62/104/56 71/105/54
f 59/138/59 82/136/73 72/128/76 61/127/57
f 82/136/73 83/134/74 73/129/75 72/128/76
f 83/134/74 84/131/77 74/130/80 73/129/75
f 84/131/77 85/123/78 75/124/79 74/130/80
f 85/123/78 86/121/81 76/122/54 75/124/79
f 86/121/81 65/117/60 64/118/63 76/122/54
f 46/102/82 47/137/83 59/138/59 58/103/58
f 50/119/84 51/116/85 66/113/61 65/117/60
f 51/116/85 87/115/86 77/111/64 66/113/61
f 87/115/86 88/98/87 78/109/65 77/111/64
f 90/97/88 91/99/89 81/100/72 80/101/69
f 91/99/89 46/102/82 58/103/58 81/100/72
f 47/137/83 92/135/90 82/136/73 59/138/59
f 92/135/90 93/133/91 83/134/74 82/136/73
f 93/133/91 94/132/92 84/131/77 83/134/74
f 94/132/92 95/125/93 85/123/78 84/131/77
f 95/125/93 96/120/94 86/121/81 85/123/78
f 96/120/94 50/119/84 65/117/60 86/121/81
usemtl TIEINTERCEPTOR_Tex00011
f 88/90/87 89/91/95 79/92/68 78/87/65
f 89/91/95 90/93/88 80/88/69 79/92/68
f 98/89/96 99/94/97 89/91/95 88/90/87
f 99/94/97 100/83/111 90/93/88 89/91/95
usemtl TIEINTERCEPTOR_Tex00012
f 53/163/98 54/174/99 48/175/100 45/161/101
f 55/164/102 56/154/103 52/155/104 49/165/105
f 57/173/106 54/174/99 53/163/98
f 57/173/106 56/154/103 55/164/102
f 56/154/103 107/152/107 97/153/122 52/155/104
f 107/152/107 108/150/108 98/151/96 97/153/122
f 108/150/108 109/146/109 99/149/97 98/151/96
f 109/146/109 110/147/110 100/148/111 99/149/97
f 110/147/110 111/160/112 101/158/123 100/148/111
f 111/160/112 53/163/98 45/161/101 101/158/123
f 54/174/99 112/177/113 102/183/116 48/175/100
f 112/177/113 113/176/114 103/181/115 102/183/116
f 113/176/114 114/178/117 104/179/120 103/181/115
f 114/178/117 115/172/118 105/170/119 104/179/120
f 115/172/118 116/167/121 106/168/124 105/170/119
f 116/167/121 55/164/102 49/165/105 106/168/124
f 57/145/106 107/139/107 56/140/103
f 57/173/106 108/150/108 107/152/107
f 57/173/106 109/146/109 108/150/108
f 57/173/106 110/147/110 109/146/109
f 57/173/106 111/160/112 110/147/110
f 57/173/106 53/163/98 111/160/112
f 57/173/106 112/177/113 54/174/99
f 57/173/106 113/176/114 112/177/113
f 57/173/106 114/178/117 113/176/114
f 57/173/106 115/172/118 114/178/117
f 57/173/106 116/167/121 115/172/118
f 57/173/106 55/164/102 116/167/121
f 45/141/101 48/143/100 47/144/83 46/142/82
f 49/165/105 52/155/104 51/157/85 50/166/84
f 52/155/104 97/153/122 87/156/86 51/157/85
f 97/153/122 98/151/96 88/95/87 87/156/86
f 100/148/111 101/158/123 91/159/89 90/96/88
f 101/158/123 45/161/101 46/162/82 91/159/89
f 48/175/100 102/183/116 92/184/90 47/185/83
f 102/183/116 103/181/115 93/182/91 92/184/90
f 103/181/115 104/179/120 94/180/92 93/182/91
f 104/179/120 105/170/119 95/171/93 94/180/92
f 105/170/119 106/168/124 96/169/94 95/171/93
f 106/168/124 49/165/105 50/166/84 96/169/94
